<svg width="33" height="33" viewBox="0 0 33 33" fill="none" xmlns="http://www.w3.org/2000/svg">
<g clip-path="url(#clip0_3821_1538)">
<path d="M23.2159 18.8799C24.5687 18.8799 25.6654 17.8102 25.6654 16.4906C25.6654 15.171 24.5687 14.1013 23.2159 14.1013C21.863 14.1013 20.7664 15.171 20.7664 16.4906C20.7664 17.8102 21.863 18.8799 23.2159 18.8799Z" fill="white"/>
<path d="M28.2037 18.2503C29.2 18.2503 30.0077 17.4625 30.0077 16.4906C30.0077 15.5188 29.2 14.731 28.2037 14.731C27.2073 14.731 26.3997 15.5188 26.3997 16.4906C26.3997 17.4625 27.2073 18.2503 28.2037 18.2503Z" fill="white"/>
<path d="M31.8309 17.6321C32.4772 17.6321 33.0011 17.1211 33.0011 16.4906C33.0011 15.8602 32.4772 15.3491 31.8309 15.3491C31.1846 15.3491 30.6606 15.8602 30.6606 16.4906C30.6606 17.1211 31.1846 17.6321 31.8309 17.6321Z" fill="white"/>
<path d="M25.0457 25.2087L18.9358 19.2771C18.3173 19.7137 17.5702 19.9427 16.8069 19.9297C16.0435 19.9167 15.3051 19.6625 14.7026 19.2052C13.0004 20.8683 11.2983 22.5317 9.59621 24.1954L8.68672 25.0836C8.38599 25.3769 8.21704 25.7748 8.21704 26.1896C8.21704 26.6045 8.38599 27.0024 8.68672 27.2957C8.98746 27.589 9.39534 27.7538 9.82064 27.7538C10.2459 27.7538 10.6538 27.589 10.9546 27.2957C12.3838 25.8988 13.813 24.5016 15.2423 23.104C15.2423 25.4134 15.2423 27.7217 15.2423 30.029C15.2423 30.4981 15.2423 30.9669 15.2423 31.4353C15.2423 32.2536 15.9797 33.0365 16.8453 32.999C17.711 32.9614 18.4484 32.312 18.4484 31.4353L18.442 23.2166L21.8748 26.5524L22.7725 27.4229C22.9204 27.5722 23.0972 27.6913 23.2928 27.7733C23.4884 27.8552 23.6988 27.8984 23.9116 27.9002C24.1245 27.902 24.3356 27.8624 24.5326 27.7838C24.7296 27.7052 24.9086 27.5891 25.0591 27.4423C25.2096 27.2954 25.3287 27.1208 25.4093 26.9287C25.4899 26.7365 25.5304 26.5306 25.5286 26.323C25.5267 26.1154 25.4825 25.9102 25.3985 25.7194C25.3145 25.5286 25.1923 25.3561 25.0392 25.2118L25.0457 25.2087Z" fill="white"/>
<path d="M14.0003 14.4902L8.79667 9.43111L7.92459 8.58464C7.62224 8.2998 7.2173 8.14219 6.79698 8.14575C6.37666 8.14931 5.97458 8.31376 5.67736 8.60368C5.38013 8.8936 5.21154 9.28579 5.20789 9.69579C5.20423 10.1058 5.36581 10.5008 5.65783 10.7957L9.83974 14.855L2.84175 14.8717H1.60417C0.766289 14.8717 -0.0373901 15.5899 0.00108392 16.4354C0.0395579 17.2808 0.705372 17.9991 1.60417 17.9991L9.76813 17.9813L6.48395 21.1921L5.59157 22.0646C5.29955 22.3596 5.13797 22.7545 5.14162 23.1645C5.14528 23.5745 5.31387 23.9667 5.6111 24.2566C5.90832 24.5466 6.31039 24.711 6.73072 24.7146C7.15104 24.7181 7.55598 24.5605 7.85833 24.2757L13.9084 18.3629C13.5232 17.783 13.326 17.1034 13.3424 16.4127C13.3588 15.7219 13.588 15.052 14.0003 14.4902Z" fill="white"/>
<path d="M24.9099 5.40098C24.6063 5.11301 24.1995 4.95191 23.776 4.95191C23.3525 4.95191 22.9457 5.11301 22.6421 5.40098L18.4377 9.51034C18.4377 7.31076 18.4377 5.11152 18.4377 2.91263C18.4377 2.46299 18.4377 2.01369 18.4377 1.56474C18.4377 0.74745 17.7003 -0.0364772 16.8347 0.00105128C15.969 0.0385797 15.2316 0.68803 15.2316 1.56474L15.238 9.65628L11.9495 6.46845L11.0197 5.56568C10.7174 5.28085 10.3125 5.12324 9.89213 5.1268C9.47181 5.13036 9.06973 5.29481 8.77251 5.58473C8.47529 5.87465 8.30669 6.26684 8.30304 6.67684C8.29939 7.08683 8.46097 7.48182 8.75298 7.77673L14.7015 13.5519L14.834 13.6802C15.4088 13.2841 16.0918 13.0649 16.7953 13.0506C17.4989 13.0363 18.1907 13.2276 18.7819 13.5999C20.5317 11.8903 22.2816 10.1803 24.0314 8.46997L24.9099 7.60994C25.2032 7.31342 25.3671 6.91747 25.3671 6.50546C25.3671 6.09344 25.2032 5.6975 24.9099 5.40098Z" fill="white"/>
</g>
<defs>
<clipPath id="clip0_3821_1538">
<rect width="33" height="33" fill="white"/>
</clipPath>
</defs>
</svg>
