<svg width="40" height="40" viewBox="0 0 40 40" fill="none" xmlns="http://www.w3.org/2000/svg">
    <path
      fill-rule="evenodd"
      clip-rule="evenodd"
      d="M20.7558 4.12141C22.8833 4.22527 24.9683 4.75476 26.8872 5.67849C28.8061 6.60223 30.5199 7.9014 31.9268 9.49899L33.2516 8.34785C31.6882 6.57067 29.783 5.12562 27.6493 4.0986C25.5157 3.07158 23.1971 2.48356 20.8315 2.36949L20.7558 4.12141ZM32.8924 10.7048C34.1377 12.4309 35.0234 14.3891 35.4973 16.4634C35.9712 18.5377 36.0236 20.6859 35.6514 22.7808L37.3782 23.0967C37.7939 20.7678 37.7366 18.3791 37.2096 16.0727C36.6826 13.7663 35.6967 11.5894 34.3106 9.67125L32.8924 10.7048ZM35.3065 24.2874C34.7322 26.3363 33.7521 28.2492 32.4242 29.9128C31.0962 31.5764 29.4475 32.9567 27.5757 33.9721L28.405 35.5181C30.4869 34.3904 32.3206 32.8562 33.7972 31.0065C35.2738 29.1569 36.3632 27.0297 37.0005 24.7512L35.3065 24.2874ZM26.1819 34.6426C24.2202 35.4714 22.1119 35.8985 19.9819 35.8985C17.852 35.8985 15.7437 35.4714 13.7819 34.6426L13.0888 36.2559C15.2694 37.1787 17.6134 37.6543 19.9815 37.6543C22.3496 37.6543 24.6936 37.1787 26.8741 36.2559L26.1819 34.6426ZM12.3873 33.9704C10.5155 32.9549 8.86674 31.5746 7.53866 29.911C6.21059 28.2475 5.23023 26.3346 4.65566 24.2857L2.96247 24.7495C3.59972 27.0284 4.6891 29.156 6.16585 31.0059C7.64261 32.8559 9.47661 34.3903 11.5588 35.5181L12.3873 33.9704ZM4.31248 22.7791C3.94004 20.6842 3.99231 18.536 4.46622 16.4616C4.94012 14.3873 5.82601 12.4291 7.07139 10.7031L5.65325 9.66956C4.26689 11.5879 3.2809 13.7651 2.75391 16.0718C2.22692 18.3785 2.16969 20.7675 2.58564 23.0967L4.31248 22.7791ZM8.03617 9.49563C9.44336 7.89808 11.1573 6.59896 13.0763 5.67523C14.9953 4.75151 17.0804 4.22199 19.2081 4.11805L19.1324 2.36613C16.7669 2.47949 14.4484 3.06686 12.3147 4.09331C10.1811 5.11976 8.27579 6.56434 6.71223 8.34113L8.03617 9.49563ZM20.6195 7.35132C22.3081 7.43569 23.9627 7.85664 25.486 8.58941C27.0092 9.32218 28.3703 10.3519 29.4892 11.6181L30.814 10.4661C29.5385 9.0206 27.9858 7.84511 26.2479 7.00908C24.5099 6.17304 22.6218 5.69343 20.6952 5.59856L20.6195 7.35132ZM30.2799 12.6088C31.2666 13.9803 31.9687 15.5351 32.345 17.1817C32.7213 18.8283 32.7642 20.5334 32.471 22.1968L34.1979 22.5128C34.5342 20.6153 34.4863 18.6698 34.0571 16.7912C33.6279 14.9126 32.826 13.139 31.6989 11.5752L30.2799 12.6088ZM32.1851 23.4328C31.7267 25.0588 30.9474 26.5768 29.8928 27.8973C28.8383 29.2178 27.5299 30.3142 26.0448 31.1219L26.8741 32.668C28.5688 31.7476 30.0616 30.4972 31.2642 28.9906C32.4667 27.4841 33.3548 25.7519 33.8757 23.8966L32.1851 23.4328ZM24.9042 31.6715C23.3467 32.3269 21.6737 32.6645 19.9836 32.6645C18.2935 32.6645 16.6205 32.3269 15.063 31.6715L14.3699 33.2831C16.1469 34.0329 18.0563 34.4193 19.9853 34.4193C21.9143 34.4193 23.8237 34.0329 25.6007 33.2831L24.9042 31.6715ZM13.9165 31.1219C12.4314 30.3142 11.123 29.2178 10.0685 27.8973C9.01396 26.5768 8.23459 25.0588 7.77626 23.4328L6.08222 23.8966C6.6038 25.7521 7.49242 27.4843 8.69558 28.9909C9.89874 30.4974 11.392 31.7478 13.0872 32.668L13.9165 31.1219ZM7.49785 22.1977C7.20432 20.5345 7.24658 18.8296 7.62215 17.183C7.99771 15.5365 8.699 13.9815 9.68479 12.6096L8.26664 11.5761C7.13953 13.1398 6.33767 14.9134 5.90844 16.7921C5.47922 18.6707 5.43134 20.6162 5.76764 22.5136L7.49785 22.1977ZM10.4797 11.6189C11.5983 10.3528 12.9591 9.32302 14.4821 8.59011C16.005 7.85721 17.6594 7.43602 19.3477 7.35132L19.272 5.59856C17.3453 5.69334 15.4572 6.17291 13.7193 7.00895C11.9813 7.84499 10.4287 9.02053 9.15319 10.4661L10.4797 11.6189ZM20.4891 10.3166C21.7749 10.3841 23.0344 10.7064 24.1942 11.2648C25.3541 11.8232 26.3912 12.6065 27.2451 13.5692L28.5699 12.4172C27.5591 11.2754 26.3303 10.3467 24.9556 9.68544C23.5808 9.02419 22.0878 8.64372 20.564 8.56632L20.4891 10.3166ZM27.8776 14.3581C28.6268 15.4043 29.1601 16.5888 29.4466 17.8428C29.7331 19.0968 29.767 20.3952 29.5464 21.6624L31.2733 21.9784C31.537 20.4769 31.4979 18.938 31.1584 17.4518C30.8188 15.9657 30.1855 14.5622 29.2958 13.3238L27.8776 14.3581ZM29.321 22.6489C28.9694 23.8862 28.3749 25.0413 27.5722 26.0468C26.7694 27.0524 25.7744 27.8885 24.6451 28.5062L25.4737 30.0523C26.8131 29.322 27.9931 28.3319 28.9445 27.1401C29.8959 25.9484 30.5995 24.5788 31.0142 23.1119L29.321 22.6489ZM23.7317 28.9457C22.5442 29.4428 21.2695 29.6988 19.9819 29.6988C18.6944 29.6988 17.4197 29.4428 16.2322 28.9457L15.5391 30.5573C16.9457 31.1479 18.4561 31.4521 19.9819 31.4521C21.5077 31.4521 23.0182 31.1479 24.4248 30.5573L23.7317 28.9457ZM15.3204 28.5071C14.1911 27.8893 13.1961 27.0533 12.3933 26.0477C11.5906 25.0421 10.9961 23.887 10.6445 22.6497L8.95132 23.1127C9.36568 24.5797 10.0691 25.9493 11.0204 27.1411C11.9717 28.3329 13.1516 29.3229 14.491 30.0531L15.3204 28.5071ZM10.4191 21.6633C10.1985 20.396 10.2324 19.0976 10.5189 17.8436C10.8054 16.5896 11.3388 15.4051 12.0879 14.359L10.6698 13.3255C9.77998 14.5639 9.14674 15.9674 8.80717 17.4535C8.46759 18.9397 8.42852 20.4786 8.69226 21.98L10.4191 21.6633ZM12.7188 13.5692C13.5729 12.6067 14.6102 11.8237 15.7702 11.2656C16.9302 10.7074 18.1898 10.3854 19.4756 10.3182L19.3999 8.56632C17.876 8.64362 16.3829 9.02406 15.0082 9.68531C13.6335 10.3466 12.4047 11.2753 11.394 12.4172L12.7188 13.5692ZM20.373 13.0381C21.2896 13.0892 22.187 13.3203 23.0141 13.7182C23.8411 14.1161 24.5814 14.6731 25.1927 15.3572L26.5167 14.2052C25.7489 13.3418 24.8173 12.6391 23.7756 12.138C22.734 11.637 21.6032 11.3474 20.4487 11.2862L20.373 13.0381ZM25.6772 15.9639C26.2087 16.7114 26.5874 17.5563 26.7916 18.4502C26.9958 19.3442 27.0216 20.2695 26.8674 21.1734L28.5943 21.4893C28.7917 20.3512 28.7609 19.1852 28.5038 18.0589C28.2466 16.9327 27.7682 15.8687 27.0962 14.9287L25.6772 15.9639ZM26.6941 21.9296C26.4404 22.8108 26.0153 23.6334 25.443 24.3502C24.8708 25.0671 24.1626 25.6642 23.3591 26.1073L24.1884 27.6534C25.2016 27.0973 26.0943 26.3459 26.8148 25.4427C27.5353 24.5395 28.0692 23.5025 28.3857 22.3918L26.6941 21.9296ZM22.6567 26.4443C21.8088 26.7956 20.8999 26.9764 19.9819 26.9764C19.064 26.9764 18.155 26.7956 17.3071 26.4443L16.614 28.0559C17.6808 28.501 18.8254 28.7301 19.9815 28.7301C21.1376 28.7301 22.2822 28.501 23.349 28.0559L22.6567 26.4443ZM16.6073 26.1082C15.8038 25.665 15.0956 25.0679 14.5233 24.3511C13.9511 23.6342 13.5259 22.8116 13.2722 21.9305L11.5782 22.3918C11.8951 23.5024 12.4295 24.5392 13.1504 25.4421C13.8713 26.345 14.7644 27.0961 15.7779 27.6517L16.6073 26.1082ZM13.0989 21.1734C12.9448 20.2695 12.9705 19.3442 13.1748 18.4502C13.379 17.5563 13.7577 16.7114 14.2891 15.9639L12.8702 14.9304C12.1984 15.8702 11.7201 16.9339 11.4629 18.0598C11.2058 19.1857 11.1749 20.3514 11.3721 21.4893L13.0989 21.1734ZM13.4497 14.2052L14.7736 15.3572C15.3849 14.6731 16.1253 14.1161 16.9523 13.7182C17.7793 13.3203 18.6768 13.0892 19.5933 13.0381L19.5176 11.2862C18.3632 11.3471 17.2325 11.6364 16.1909 12.1371C15.1492 12.6379 14.2175 13.3403 13.4497 14.2035V14.2052ZM20.2629 15.5328C21.429 15.6059 22.5204 16.1311 23.3044 16.9965L24.6292 15.8445C23.5284 14.6173 21.9862 13.8751 20.3394 13.7801L20.2629 15.5328ZM23.6551 17.4343C24.3242 18.3906 24.5931 19.57 24.4046 20.7213L26.1314 21.0381C26.4078 19.4137 26.0289 17.746 25.0775 16.4L23.6551 17.4343ZM24.2809 21.2692C23.9509 22.3885 23.1964 23.3349 22.1781 23.9067L23.0075 25.4528C24.4506 24.6537 25.5181 23.3163 25.9767 21.733L24.2809 21.2692ZM21.6734 24.1496C20.5912 24.5899 19.3794 24.5899 18.2971 24.1496L17.604 25.762C19.1292 26.3905 20.8414 26.3905 22.3665 25.762L21.6734 24.1496ZM17.7874 23.9042C16.7694 23.332 16.015 22.3858 15.6846 21.2667L13.9914 21.7305C14.4496 23.3139 15.5173 24.6515 16.9606 25.4503L17.7874 23.9042ZM15.5576 20.7197C15.37 19.5686 15.6395 18.3899 16.3087 17.4343L14.8897 16.4008C13.9367 17.7462 13.5557 19.4137 13.8299 21.039L15.5576 20.7197ZM16.6586 16.9932C17.4431 16.1279 18.5347 15.6028 19.701 15.5295L19.6253 13.7767C17.9785 13.8718 16.4363 14.614 15.3355 15.8412L16.6586 16.9932ZM20.1636 17.82C20.7011 17.8646 21.2032 18.1061 21.5733 18.4981L22.899 17.3503C22.2113 16.5965 21.2581 16.1381 20.2393 16.0714L20.1636 17.82ZM21.7971 18.7846C22.0972 19.2321 22.2212 19.7746 22.1453 20.3079L23.8764 20.6272C24.0386 19.6204 23.8034 18.5899 23.2203 17.7528L21.7971 18.7846ZM22.0646 20.6625C21.9028 21.1767 21.5565 21.6131 21.0922 21.8876L21.9216 23.4345C22.8105 22.9327 23.4702 22.1063 23.762 21.1289L22.0646 20.6625ZM20.7608 22.0431C20.2571 22.2358 19.7 22.2358 19.1963 22.0431L18.5057 23.6521C19.4535 24.0346 20.5129 24.0346 21.4606 23.6521L20.7608 22.0431ZM18.8716 21.8876C18.4065 21.6143 18.059 21.1789 17.8959 20.6651L16.2019 21.1289C16.4937 22.1063 17.1533 22.9327 18.0423 23.4345L18.8716 21.8876ZM17.8152 20.3079C17.7393 19.7746 17.8633 19.2321 18.1634 18.7846L16.7436 17.7502C16.16 18.5881 15.9245 19.6194 16.0866 20.6272L17.8152 20.3079ZM18.3897 18.4997C18.76 18.1076 19.2624 17.8661 19.8002 17.8216L19.7245 16.0689C18.7053 16.1359 17.7519 16.5952 17.0649 17.3503L18.3897 18.4997ZM20.1485 18.1636L20.0559 19.8441L21.3134 18.7241C21.0051 18.404 20.5914 18.2058 20.1485 18.1662V18.1636ZM21.5212 18.9854L20.1485 19.9601L21.8089 20.2432C21.8678 19.8038 21.7656 19.358 21.5212 18.9879V18.9854ZM21.7348 20.5693L20.1148 20.1071L20.9282 21.5809C21.3098 21.3524 21.5961 20.9941 21.7348 20.5718V20.5693ZM20.6279 21.7254L19.9819 20.1718L19.3359 21.7254C19.7526 21.8805 20.2112 21.8805 20.6279 21.7254ZM19.0348 21.5809L19.8482 20.1071L18.229 20.5718C18.3675 20.994 18.6535 21.3522 19.0348 21.5809ZM18.155 20.2458L19.8145 19.9626L18.4418 18.9879C18.1975 19.3589 18.0956 19.8056 18.155 20.2458ZM18.6504 18.7266L19.9121 19.8466L19.8187 18.1662C19.3743 18.2057 18.9592 18.4048 18.6504 18.7266ZM39.4264 20.0013C39.4264 9.34607 30.65 0.57724 19.9844 0.57724C9.3189 0.57724 0.540009 9.34607 0.540009 20.0013C0.540009 30.6564 9.31637 39.4253 19.9811 39.4253C30.6458 39.4253 39.423 30.6573 39.423 20.0013H39.4264Z"
      fill="#EAB308"
    />
  </svg>